<svg xmlns="http://www.w3.org/2000/svg" width="33" height="33" viewBox="0 0 33 33" fill="none">
  <path d="M12.0262 4.00928H5.3442C4.60614 4.00928 4.00781 4.6076 4.00781 5.34567V14.7004C4.00781 15.4385 4.60614 16.0368 5.3442 16.0368H12.0262C12.7642 16.0368 13.3626 15.4385 13.3626 14.7004V5.34567C13.3626 4.6076 12.7642 4.00928 12.0262 4.00928Z" stroke="#71718A" stroke-width="2.67278" stroke-linecap="round" stroke-linejoin="round"/>
  <path d="M26.7273 4.00928H20.0454C19.3073 4.00928 18.709 4.6076 18.709 5.34567V9.35484C18.709 10.0929 19.3073 10.6912 20.0454 10.6912H26.7273C27.4654 10.6912 28.0637 10.0929 28.0637 9.35484V5.34567C28.0637 4.6076 27.4654 4.00928 26.7273 4.00928Z" stroke="#71718A" stroke-width="2.67278" stroke-linecap="round" stroke-linejoin="round"/>
  <path d="M26.7273 16.037H20.0454C19.3073 16.037 18.709 16.6353 18.709 17.3734V26.7281C18.709 27.4662 19.3073 28.0645 20.0454 28.0645H26.7273C27.4654 28.0645 28.0637 27.4662 28.0637 26.7281V17.3734C28.0637 16.6353 27.4654 16.037 26.7273 16.037Z" stroke="#71718A" stroke-width="2.67278" stroke-linecap="round" stroke-linejoin="round"/>
  <path d="M12.0262 21.3821H5.3442C4.60614 21.3821 4.00781 21.9804 4.00781 22.7185V26.7276C4.00781 27.4657 4.60614 28.064 5.3442 28.064H12.0262C12.7642 28.064 13.3626 27.4657 13.3626 26.7276V22.7185C13.3626 21.9804 12.7642 21.3821 12.0262 21.3821Z" stroke="#71718A" stroke-width="2.67278" stroke-linecap="round" stroke-linejoin="round"/>
</svg>