<svg xmlns="http://www.w3.org/2000/svg" width="33" height="33" viewBox="0 0 33 33" fill="none">
  <path d="M12.0291 4.00916H5.34713C4.60906 4.00916 4.01074 4.60748 4.01074 5.34555V14.7003C4.01074 15.4384 4.60906 16.0367 5.34713 16.0367H12.0291C12.7672 16.0367 13.3655 15.4384 13.3655 14.7003V5.34555C13.3655 4.60748 12.7672 4.00916 12.0291 4.00916Z" stroke="#6868FF" stroke-width="2.67278" stroke-linecap="round" stroke-linejoin="round"/>
  <path d="M26.7293 4.00916H20.0473C19.3093 4.00916 18.7109 4.60748 18.7109 5.34555V9.35472C18.7109 10.0928 19.3093 10.6911 20.0473 10.6911H26.7293C27.4674 10.6911 28.0657 10.0928 28.0657 9.35472V5.34555C28.0657 4.60748 27.4674 4.00916 26.7293 4.00916Z" stroke="#6868FF" stroke-width="2.67278" stroke-linecap="round" stroke-linejoin="round"/>
  <path d="M26.7293 16.0367H20.0473C19.3093 16.0367 18.7109 16.6351 18.7109 17.3731V26.7279C18.7109 27.4659 19.3093 28.0643 20.0473 28.0643H26.7293C27.4674 28.0643 28.0657 27.4659 28.0657 26.7279V17.3731C28.0657 16.6351 27.4674 16.0367 26.7293 16.0367Z" stroke="#6868FF" stroke-width="2.67278" stroke-linecap="round" stroke-linejoin="round"/>
  <path d="M12.0291 21.3823H5.34713C4.60906 21.3823 4.01074 21.9806 4.01074 22.7187V26.7279C4.01074 27.466 4.60906 28.0643 5.34713 28.0643H12.0291C12.7672 28.0643 13.3655 27.466 13.3655 26.7279V22.7187C13.3655 21.9806 12.7672 21.3823 12.0291 21.3823Z" stroke="#6868FF" stroke-width="2.67278" stroke-linecap="round" stroke-linejoin="round"/>
</svg>