<svg xmlns="http://www.w3.org/2000/svg" width="33" height="33" viewBox="0 0 33 33" fill="none">
  <path d="M4.00977 16.0368C4.00977 18.4156 4.71517 20.741 6.03677 22.7189C7.35837 24.6969 9.23681 26.2385 11.4346 27.1488C13.6323 28.0591 16.0506 28.2973 18.3837 27.8332C20.7169 27.3691 22.86 26.2236 24.542 24.5415C26.2241 22.8595 27.3696 20.7164 27.8337 18.3833C28.2978 16.0501 28.0596 13.6318 27.1493 11.4341C26.2389 9.23632 24.6973 7.35788 22.7194 6.03628C20.7415 4.71468 18.4161 4.00928 16.0373 4.00928C12.6749 4.02193 9.4475 5.33394 7.03001 7.67099L4.00977 10.6912" stroke="#6868FF" stroke-width="2.67278" stroke-linecap="round" stroke-linejoin="round"/>
  <path d="M4.00977 4.00928V10.6912H10.6917" stroke="#6868FF" stroke-width="2.67278" stroke-linecap="round" stroke-linejoin="round"/>
  <path d="M16.0371 9.35474V16.0367L21.3827 18.7095" stroke="#6868FF" stroke-width="2.67278" stroke-linecap="round" stroke-linejoin="round"/>
</svg>