<svg xmlns="http://www.w3.org/2000/svg" width="33" height="33" viewBox="0 0 33 33" fill="none">
  <path d="M4.00977 16.0367C4.00977 18.4155 4.71517 20.7409 6.03677 22.7188C7.35837 24.6967 9.23681 26.2383 11.4346 27.1487C13.6323 28.059 16.0506 28.2972 18.3837 27.8331C20.7169 27.369 22.86 26.2235 24.542 24.5414C26.2241 22.8593 27.3696 20.7162 27.8337 18.3831C28.2978 16.05 28.0596 13.6317 27.1493 11.4339C26.2389 9.2362 24.6973 7.35776 22.7194 6.03616C20.7415 4.71456 18.4161 4.00916 16.0373 4.00916C12.6749 4.0218 9.4475 5.33382 7.03001 7.67087L4.00977 10.6911" stroke="#71718A" stroke-width="2.67278" stroke-linecap="round" stroke-linejoin="round"/>
  <path d="M4.00977 4.00916V10.6911H10.6917" stroke="#71718A" stroke-width="2.67278" stroke-linecap="round" stroke-linejoin="round"/>
  <path d="M16.0371 9.35474V16.0367L21.3827 18.7095" stroke="#71718A" stroke-width="2.67278" stroke-linecap="round" stroke-linejoin="round"/>
</svg>