<svg xmlns="http://www.w3.org/2000/svg" width="45" height="45" viewBox="0 0 45 45" fill="none">
  <path d="M22.4517 3.74194C20.9631 3.74194 19.5354 4.3333 18.4828 5.38591C17.4302 6.43852 16.8389 7.86617 16.8389 9.35479V22.4514C16.8389 23.94 17.4302 25.3677 18.4828 26.4203C19.5354 27.4729 20.9631 28.0643 22.4517 28.0643C23.9403 28.0643 25.368 27.4729 26.4206 26.4203C27.4732 25.3677 28.0646 23.94 28.0646 22.4514V9.35479C28.0646 7.86617 27.4732 6.43852 26.4206 5.38591C25.368 4.3333 23.9403 3.74194 22.4517 3.74194Z" stroke="white" stroke-width="3.7419" stroke-linecap="round" stroke-linejoin="round"/>
  <path d="M35.5487 18.7097V22.4516C35.5487 25.9251 34.1689 29.2562 31.7128 31.7123C29.2567 34.1684 25.9255 35.5483 22.4521 35.5483C18.9787 35.5483 15.6475 34.1684 13.1914 31.7123C10.7353 29.2562 9.35547 25.9251 9.35547 22.4516V18.7097" stroke="white" stroke-width="3.7419" stroke-linecap="round" stroke-linejoin="round"/>
  <path d="M22.4521 35.5482V41.1611" stroke="white" stroke-width="3.7419" stroke-linecap="round" stroke-linejoin="round"/>
</svg>