<svg width="77" height="77" viewBox="0 0 77 77" fill="none" xmlns="http://www.w3.org/2000/svg">
<path d="M0 22.4514C0 10.0518 10.0518 0 22.4514 0H54.5248C66.9243 0 76.9762 10.0518 76.9762 22.4514V54.5248C76.9762 66.9243 66.9243 76.9762 54.5248 76.9762H22.4514C10.0518 76.9762 0 66.9243 0 54.5248V22.4514Z" fill="#ECFDF5"/>
<path d="M43.1342 39.6775L45.1589 51.0716C45.1816 51.2057 45.1627 51.3436 45.1049 51.4668C45.0471 51.59 44.9531 51.6926 44.8354 51.7609C44.7177 51.8292 44.5819 51.8599 44.4463 51.849C44.3107 51.838 44.1816 51.7859 44.0764 51.6997L39.2921 48.1088C39.0612 47.9362 38.7806 47.843 38.4923 47.843C38.204 47.843 37.9234 47.9362 37.6925 48.1088L32.9002 51.6983C32.795 51.7844 32.6661 51.8364 32.5306 51.8474C32.3952 51.8583 32.2596 51.8277 32.142 51.7596C32.0244 51.6915 31.9303 51.5892 31.8724 51.4662C31.8144 51.3433 31.7953 51.2056 31.8177 51.0716L33.841 39.6775" stroke="#00BC7D" stroke-width="2.67278" stroke-linecap="round" stroke-linejoin="round"/>
<path d="M38.4871 41.161C42.9155 41.161 46.5054 37.571 46.5054 33.1426C46.5054 28.7142 42.9155 25.1243 38.4871 25.1243C34.0587 25.1243 30.4688 28.7142 30.4688 33.1426C30.4688 37.571 34.0587 41.161 38.4871 41.161Z" stroke="#00BC7D" stroke-width="2.67278" stroke-linecap="round" stroke-linejoin="round"/>
</svg>
