<svg width="77" height="77" viewBox="0 0 77 77" fill="none" xmlns="http://www.w3.org/2000/svg">
<path d="M0 22.4514C0 10.0518 10.0518 0 22.4514 0H54.5248C66.9243 0 76.9762 10.0518 76.9762 22.4514V54.5248C76.9762 66.9243 66.9243 76.9762 54.5248 76.9762H22.4514C10.0518 76.9762 0 66.9243 0 54.5248V22.4514Z" fill="#6868FF" fill-opacity="0.1"/>
<path d="M43.833 39.8245L50.813 44.4778C50.9136 44.5448 51.0305 44.5832 51.1512 44.589C51.272 44.5947 51.392 44.5677 51.4985 44.5106C51.6051 44.4536 51.6942 44.3687 51.7563 44.265C51.8185 44.1613 51.8513 44.0427 51.8514 43.9219V32.9688C51.8514 32.8512 51.8204 32.7357 51.7615 32.634C51.7026 32.5322 51.618 32.4478 51.516 32.3892C51.4141 32.3306 51.2985 32.3 51.1809 32.3004C51.0633 32.3008 50.9479 32.3322 50.8464 32.3915L43.833 36.4835" stroke="#6868FF" stroke-width="2.67278" stroke-linecap="round" stroke-linejoin="round"/>
<path d="M41.1597 30.4697H27.7958C26.3197 30.4697 25.123 31.6664 25.123 33.1425V43.8336C25.123 45.3098 26.3197 46.5064 27.7958 46.5064H41.1597C42.6359 46.5064 43.8325 45.3098 43.8325 43.8336V33.1425C43.8325 31.6664 42.6359 30.4697 41.1597 30.4697Z" stroke="#6868FF" stroke-width="2.67278" stroke-linecap="round" stroke-linejoin="round"/>
</svg>
