<svg width="52" height="52" viewBox="0 0 52 52" fill="none" xmlns="http://www.w3.org/2000/svg">
<path d="M0 16.0367C0 7.17989 7.17987 0 16.0367 0H35.2807C44.1375 0 51.3174 7.17987 51.3174 16.0367V35.2807C51.3174 44.1375 44.1376 51.3174 35.2807 51.3174H16.0367C7.17989 51.3174 0 44.1376 0 35.2807V16.0367Z" fill="#6868FF"/>
<path d="M25.6595 14.9675C24.8088 14.9675 23.993 15.3054 23.3916 15.9069C22.7901 16.5084 22.4521 17.3242 22.4521 18.1749V25.6587C22.4521 26.5093 22.7901 27.3251 23.3916 27.9266C23.993 28.5281 24.8088 28.866 25.6595 28.866C26.5101 28.866 27.3259 28.5281 27.9274 27.9266C28.5289 27.3251 28.8668 26.5093 28.8668 25.6587V18.1749C28.8668 17.3242 28.5289 16.5084 27.9274 15.9069C27.3259 15.3054 26.5101 14.9675 25.6595 14.9675Z" stroke="white" stroke-width="2.13823" stroke-linecap="round" stroke-linejoin="round"/>
<path d="M33.1414 23.5204V25.6586C33.1414 27.6434 32.3529 29.547 30.9495 30.9505C29.546 32.3539 27.6424 33.1424 25.6576 33.1424C23.6728 33.1424 21.7693 32.3539 20.3658 30.9505C18.9623 29.547 18.1738 27.6434 18.1738 25.6586V23.5204" stroke="white" stroke-width="2.13823" stroke-linecap="round" stroke-linejoin="round"/>
<path d="M25.6592 33.1425V36.3498" stroke="white" stroke-width="2.13823" stroke-linecap="round" stroke-linejoin="round"/>
</svg>
